<svg width="27" height="26" viewBox="0 0 27 26" fill="none" xmlns="http://www.w3.org/2000/svg">
<path d="M23.25 13C23.25 11.7196 22.9978 10.4518 22.5078 9.26884C22.0178 8.08591 21.2997 7.01108 20.3943 6.10571C19.4889 5.20034 18.4141 4.48216 17.2312 3.99217C16.0482 3.50219 14.7804 3.25 13.5 3.25C12.2196 3.25 10.9518 3.50219 9.76884 3.99217C8.58591 4.48216 7.51108 5.20034 6.60571 6.10571C5.70034 7.01108 4.98216 8.08591 4.49217 9.26884C4.00219 10.4518 3.75 11.7196 3.75 13C3.75 15.5859 4.77723 18.0658 6.60571 19.8943C8.43419 21.7228 10.9141 22.75 13.5 22.75C16.0859 22.75 18.5658 21.7228 20.3943 19.8943C22.2228 18.0658 23.25 15.5859 23.25 13ZM5.375 13C5.375 10.8451 6.23102 8.77849 7.75476 7.25476C9.27849 5.73102 11.3451 4.875 13.5 4.875C15.6549 4.875 17.7215 5.73102 19.2452 7.25476C20.769 8.77849 21.625 10.8451 21.625 13C21.625 15.1549 20.769 17.2215 19.2452 18.7452C17.7215 20.269 15.6549 21.125 13.5 21.125C11.3451 21.125 9.27849 20.269 7.75476 18.7452C6.23102 17.2215 5.375 15.1549 5.375 13ZM11.875 10.9688C11.875 11.1288 11.8435 11.2873 11.7822 11.4351C11.721 11.583 11.6312 11.7174 11.518 11.8305C11.4049 11.9437 11.2705 12.0335 11.1226 12.0947C10.9748 12.156 10.8163 12.1875 10.6562 12.1875C10.4962 12.1875 10.3377 12.156 10.1899 12.0947C10.042 12.0335 9.90763 11.9437 9.79446 11.8305C9.68129 11.7174 9.59152 11.583 9.53027 11.4351C9.46902 11.2873 9.4375 11.1288 9.4375 10.9688C9.4375 10.6455 9.5659 10.3355 9.79446 10.107C10.023 9.8784 10.333 9.75 10.6562 9.75C10.9795 9.75 11.2895 9.8784 11.518 10.107C11.7466 10.3355 11.875 10.6455 11.875 10.9688ZM17.5625 10.9688C17.5625 11.292 17.4341 11.602 17.2055 11.8305C16.977 12.0591 16.667 12.1875 16.3438 12.1875C16.0205 12.1875 15.7105 12.0591 15.482 11.8305C15.2534 11.602 15.125 11.292 15.125 10.9688C15.125 10.6455 15.2534 10.3355 15.482 10.107C15.7105 9.8784 16.0205 9.75 16.3438 9.75C16.667 9.75 16.977 9.8784 17.2055 10.107C17.4341 10.3355 17.5625 10.6455 17.5625 10.9688ZM10.4645 17.5857C11.9676 15.8047 15.0308 15.8047 16.5355 17.5857C16.6026 17.6721 16.6865 17.7441 16.7822 17.7972C16.8778 17.8504 16.9832 17.8837 17.092 17.8951C17.2008 17.9066 17.3108 17.8959 17.4154 17.8638C17.52 17.8317 17.617 17.7789 17.7006 17.7083C17.7843 17.6378 17.8528 17.5511 17.9022 17.4535C17.9515 17.3558 17.9806 17.2492 17.9878 17.1401C17.9949 17.0309 17.9799 16.9214 17.9437 16.8181C17.9075 16.7149 17.8508 16.62 17.777 16.5393C15.6239 13.988 11.3745 13.988 9.223 16.5393C9.14923 16.62 9.09254 16.7149 9.05632 16.8181C9.0201 16.9214 9.00511 17.0309 9.01224 17.1401C9.01937 17.2492 9.04848 17.3558 9.09781 17.4535C9.14715 17.5511 9.2157 17.6378 9.29935 17.7083C9.38301 17.7789 9.48004 17.8317 9.58463 17.8638C9.68922 17.8959 9.79922 17.9066 9.90803 17.8951C10.0168 17.8837 10.1222 17.8504 10.2178 17.7972C10.3135 17.7441 10.3974 17.6721 10.4645 17.5857Z" fill="#5261A0"/>
</svg>
