<svg width="53" height="48" viewBox="0 0 53 48" fill="none" xmlns="http://www.w3.org/2000/svg">
<path d="M46.8846 6.26087H39.8213L36.3483 0.928696C36.1622 0.643178 35.9103 0.409051 35.6147 0.247058C35.3191 0.0850648 34.9891 0.0002061 34.6538 0H18.3462C18.0109 0.0002061 17.6809 0.0850648 17.3853 0.247058C17.0897 0.409051 16.8377 0.643178 16.6517 0.928696L13.1761 6.26087H6.11538C4.49348 6.26087 2.93801 6.9205 1.79115 8.09464C0.644298 9.26878 0 10.8613 0 12.5217V41.7391C0 43.3996 0.644298 44.9921 1.79115 46.1662C2.93801 47.3404 4.49348 48 6.11538 48H46.8846C48.5065 48 50.062 47.3404 51.2088 46.1662C52.3557 44.9921 53 43.3996 53 41.7391V12.5217C53 10.8613 52.3557 9.26878 51.2088 8.09464C50.062 6.9205 48.5065 6.26087 46.8846 6.26087ZM48.9231 41.7391C48.9231 42.2926 48.7083 42.8235 48.326 43.2148C47.9437 43.6062 47.4252 43.8261 46.8846 43.8261H6.11538C5.57475 43.8261 5.05626 43.6062 4.67397 43.2148C4.29169 42.8235 4.07692 42.2926 4.07692 41.7391V12.5217C4.07692 11.9682 4.29169 11.4374 4.67397 11.046C5.05626 10.6547 5.57475 10.4348 6.11538 10.4348H14.2692C14.6049 10.435 14.9355 10.3504 15.2315 10.1883C15.5276 10.0263 15.7799 9.79197 15.9663 9.50609L19.4367 4.17391H33.5607L37.0337 9.50609C37.2201 9.79197 37.4724 10.0263 37.7685 10.1883C38.0645 10.3504 38.3951 10.435 38.7308 10.4348H46.8846C47.4252 10.4348 47.9437 10.6547 48.326 11.046C48.7083 11.4374 48.9231 11.9682 48.9231 12.5217V41.7391ZM26.5 14.6087C24.2826 14.6087 22.1149 15.2819 20.2712 16.5431C18.4275 17.8044 16.9905 19.597 16.1419 21.6944C15.2933 23.7918 15.0713 26.0997 15.5039 28.3263C15.9365 30.5528 17.0043 32.598 18.5722 34.2033C20.1402 35.8086 22.1379 36.9018 24.3127 37.3447C26.4876 37.7876 28.7418 37.5602 30.7905 36.6915C32.8391 35.8227 34.5901 34.3515 35.8221 32.4639C37.054 30.5763 37.7115 28.3571 37.7115 26.087C37.7082 23.0438 36.5259 20.1263 34.424 17.9744C32.3222 15.8226 29.4724 14.6121 26.5 14.6087ZM26.5 33.3913C25.0889 33.3913 23.7095 32.9629 22.5362 32.1603C21.3629 31.3577 20.4485 30.2169 19.9085 28.8822C19.3685 27.5475 19.2272 26.0789 19.5025 24.6619C19.7778 23.245 20.4573 21.9435 21.4551 20.922C22.4529 19.9005 23.7241 19.2048 25.1081 18.923C26.4921 18.6411 27.9266 18.7858 29.2303 19.3386C30.534 19.8915 31.6483 20.8277 32.4322 22.0289C33.2162 23.2301 33.6346 24.6423 33.6346 26.087C33.6346 28.0242 32.8829 29.8821 31.5449 31.2519C30.2069 32.6217 28.3922 33.3913 26.5 33.3913Z" fill="#F9FDFF"/>
</svg>
