<svg width="26" height="29" viewBox="0 0 26 29" fill="none" xmlns="http://www.w3.org/2000/svg">
<path d="M9.75 18.85H16.25C16.4124 18.8497 16.5691 18.9172 16.6891 19.0392C16.8092 19.1613 16.8839 19.3291 16.8985 19.5095C16.9132 19.6899 16.8668 19.8699 16.7684 20.0141C16.67 20.1583 16.5268 20.2561 16.367 20.2884L16.25 20.3H9.75C9.58757 20.3003 9.43092 20.2328 9.31088 20.1108C9.19085 19.9887 9.11614 19.8209 9.10146 19.6405C9.08679 19.4601 9.13321 19.2801 9.23159 19.1359C9.32997 18.9917 9.47317 18.8939 9.633 18.8616L9.75 18.85ZM7.15 13.05H18.85C19.0124 13.0497 19.1691 13.1172 19.2891 13.2392C19.4092 13.3613 19.4839 13.5291 19.4985 13.7095C19.5132 13.8899 19.4668 14.0699 19.3684 14.2141C19.27 14.3583 19.1268 14.4561 18.967 14.4884L18.85 14.5H7.15C6.98757 14.5003 6.83092 14.4328 6.71088 14.3108C6.59085 14.1887 6.51614 14.0209 6.50146 13.8405C6.48679 13.6601 6.53321 13.4801 6.63159 13.3359C6.72997 13.1917 6.87317 13.0939 7.033 13.0616L7.15 13.05ZM4.55 7.25H21.45C21.6124 7.24967 21.7691 7.31718 21.8891 7.43924C22.0092 7.5613 22.0839 7.72906 22.0985 7.90949C22.1132 8.08992 22.0668 8.26995 21.9684 8.41411C21.87 8.55827 21.7268 8.65612 21.567 8.6884L21.45 8.7H4.55C4.38757 8.70033 4.23092 8.63282 4.11088 8.51076C3.99085 8.3887 3.91614 8.22094 3.90146 8.04051C3.88679 7.86008 3.93321 7.68006 4.03159 7.5359C4.12997 7.39173 4.27317 7.29388 4.433 7.2616L4.55 7.25Z" fill="#4F99AE"/>
</svg>
