<svg width="27" height="26" viewBox="0 0 27 26" fill="none" xmlns="http://www.w3.org/2000/svg">
<path d="M13.5001 2.59998C16.2583 2.59998 18.9036 3.69569 20.854 5.64606C22.8044 7.59644 23.9001 10.2417 23.9001 13C23.9001 15.7582 22.8044 18.4035 20.854 20.3539C18.9036 22.3043 16.2583 23.4 13.5001 23.4C10.7418 23.4 8.09657 22.3043 6.14619 20.3539C4.19581 18.4035 3.1001 15.7582 3.1001 13C3.1001 10.2417 4.19581 7.59644 6.14619 5.64606C8.09657 3.69569 10.7418 2.59998 13.5001 2.59998ZM13.5001 3.89998C12.3051 3.89998 11.1217 4.13535 10.0177 4.59267C8.91362 5.04999 7.91044 5.72029 7.06543 6.5653C6.22041 7.41032 5.55011 8.41349 5.09279 9.51756C4.63548 10.6216 4.4001 11.8049 4.4001 13C4.4001 14.195 4.63548 15.3783 5.09279 16.4824C5.55011 17.5865 6.22041 18.5896 7.06543 19.4346C7.91044 20.2797 8.91362 20.95 10.0177 21.4073C11.1217 21.8646 12.3051 22.1 13.5001 22.1C15.9136 22.1 18.2282 21.1412 19.9348 19.4346C21.6413 17.7281 22.6001 15.4134 22.6001 13C22.6001 10.5865 21.6413 8.27188 19.9348 6.5653C18.2282 4.85872 15.9136 3.89998 13.5001 3.89998ZM9.8016 16.1551C10.7413 17.1011 12.0076 17.6512 13.3404 17.6923C14.6732 17.7334 15.971 17.2624 16.9672 16.3761L17.1986 16.1551C17.3128 16.039 17.4664 15.97 17.629 15.9618C17.7917 15.9536 17.9515 16.0067 18.0768 16.1106C18.2022 16.2146 18.2839 16.3618 18.3059 16.5231C18.328 16.6844 18.2886 16.8482 18.1957 16.9819L18.1216 17.0729L18.0917 17.1015C17.4848 17.7045 16.7651 18.1821 15.9736 18.5069C15.1822 18.8318 14.3345 18.9976 13.479 18.9948C12.6234 18.992 11.7768 18.8207 10.9875 18.4907C10.1982 18.1608 9.48155 17.6785 8.8786 17.0716C8.75706 16.9492 8.68913 16.7835 8.68974 16.611C8.69035 16.4385 8.75945 16.2734 8.88185 16.1518C9.00425 16.0303 9.16991 15.9624 9.3424 15.963C9.51488 15.9636 9.68006 16.0327 9.8016 16.1551ZM16.7501 9.74998C17.0949 9.74998 17.4255 9.88694 17.6693 10.1307C17.9131 10.3745 18.0501 10.7052 18.0501 11.05C18.0501 11.3948 17.9131 11.7254 17.6693 11.9692C17.4255 12.213 17.0949 12.35 16.7501 12.35C16.4053 12.35 16.0747 12.213 15.8309 11.9692C15.5871 11.7254 15.4501 11.3948 15.4501 11.05C15.4501 10.7052 15.5871 10.3745 15.8309 10.1307C16.0747 9.88694 16.4053 9.74998 16.7501 9.74998ZM10.2501 9.74998C10.5949 9.74998 10.9255 9.88694 11.1693 10.1307C11.4131 10.3745 11.5501 10.7052 11.5501 11.05C11.5501 11.3948 11.4131 11.7254 11.1693 11.9692C10.9255 12.213 10.5949 12.35 10.2501 12.35C9.90532 12.35 9.57466 12.213 9.33086 11.9692C9.08706 11.7254 8.9501 11.3948 8.9501 11.05C8.9501 10.7052 9.08706 10.3745 9.33086 10.1307C9.57466 9.88694 9.90532 9.74998 10.2501 9.74998Z" fill="#5261A0"/>
</svg>
