<svg width="65" height="65" viewBox="0 0 65 65" fill="none" xmlns="http://www.w3.org/2000/svg">
<path d="M2.03125 8.125V50.7812H8.44188C9.34781 54.273 12.4881 56.875 16.25 56.875C20.0119 56.875 23.1522 54.273 24.0581 50.7812H40.9419C41.8478 54.273 44.9881 56.875 48.75 56.875C52.5119 56.875 55.6522 54.273 56.5581 50.7812H62.9688V29.6441L62.398 29.0083L50.2105 16.8208L49.5747 16.25H38.5938V8.125H2.03125ZM6.09375 12.1875H34.5312V46.7188H24.0581C23.1522 43.227 20.0119 40.625 16.25 40.625C12.4881 40.625 9.34781 43.227 8.44188 46.7188H6.09375V12.1875ZM38.5938 20.3125H47.8623L58.9062 31.3584V46.7188H56.5581C55.6522 43.227 52.5119 40.625 48.75 40.625C44.9881 40.625 41.8478 43.227 40.9419 46.7188H38.5938V20.3125ZM16.25 44.6875C18.5189 44.6875 20.3125 46.4811 20.3125 48.75C20.3125 51.0189 18.5189 52.8125 16.25 52.8125C13.9811 52.8125 12.1875 51.0189 12.1875 48.75C12.1875 46.4811 13.9811 44.6875 16.25 44.6875ZM48.75 44.6875C51.0189 44.6875 52.8125 46.4811 52.8125 48.75C52.8125 51.0189 51.0189 52.8125 48.75 52.8125C46.4811 52.8125 44.6875 51.0189 44.6875 48.75C44.6875 46.4811 46.4811 44.6875 48.75 44.6875Z" fill="#F5F5F5"/>
<path d="M16.325 20.3438C13.1965 20.3438 10.5312 22.8562 10.5312 26.1193C10.5312 28.3704 11.5126 30.2656 12.8133 31.8355C14.1095 33.4 15.7818 34.7133 17.2936 35.8124L19.902 37.7088C20.1877 37.9165 20.5623 37.9165 20.848 37.7088L23.4564 35.8124C23.9398 35.4609 24.4397 35.0876 24.9383 34.6911C25.0688 34.5874 25.1104 34.3981 25.0383 34.2419L23.5051 30.9177C23.4327 30.7607 23.2338 30.736 23.13 30.8711L23.0481 30.9777C22.6207 31.5342 21.9841 31.8565 21.3125 31.8565H19.25C18.0074 31.8565 17 30.7745 17 29.4398C17 28.1051 18.0074 27.0231 19.25 27.0231H20.0397C20.1741 27.0231 20.3014 26.9587 20.3869 26.8474L22.155 24.5454C22.6481 23.9034 23.4141 23.5792 24.1823 23.6871C24.9506 23.795 25.6132 24.3199 25.936 25.0764L26.8391 27.1927C26.9338 27.4147 27.2031 27.4738 27.3996 27.3509C27.734 27.1417 28.1215 27.0231 28.5312 27.0231H29.8682C30.0381 27.0231 30.1824 26.8876 30.1964 26.7058C30.2111 26.513 30.2188 26.3176 30.2188 26.1193C30.2188 22.8562 27.5535 20.3438 24.425 20.3438C22.8123 20.3438 21.3933 21.1559 20.375 22.2068C19.3567 21.1559 17.9377 20.3438 16.325 20.3438Z" fill="#F5F5F5"/>
<path d="M24.6576 25.7057C24.5366 25.422 24.2881 25.2252 24 25.1847C23.7119 25.1443 23.4247 25.2659 23.2398 25.5066L20.9148 28.5336H19.25C18.784 28.5336 18.4062 28.9393 18.4062 29.4398C18.4062 29.9403 18.784 30.3461 19.25 30.3461H21.3125C21.5644 30.3461 21.8031 30.2252 21.9633 30.0165L23.6846 27.7756L25.7017 32.5026C25.8228 32.7863 26.0712 32.9831 26.3594 33.0236C26.6475 33.0641 26.9347 32.9425 27.1196 32.7017L28.929 30.3461H31.625C32.091 30.3461 32.4688 29.9403 32.4688 29.4398C32.4688 28.9393 32.091 28.5336 31.625 28.5336H28.5312C28.2794 28.5336 28.0407 28.6544 27.8804 28.8631L26.6748 30.4327L24.6576 25.7057Z" fill="#F5F5F5"/>
</svg>
