<svg width="60" height="61" viewBox="0 0 60 61" fill="none" xmlns="http://www.w3.org/2000/svg">
<path d="M23.125 55.5L22.125 47.5C21.5833 47.2917 21.0733 47.0417 20.595 46.75C20.1167 46.4583 19.6475 46.1458 19.1875 45.8125L11.75 48.9375L4.875 37.0625L11.3125 32.1875C11.2708 31.8958 11.25 31.615 11.25 31.345V29.6575C11.25 29.3858 11.2708 29.1042 11.3125 28.8125L4.875 23.9375L11.75 12.0625L19.1875 15.1875C19.6458 14.8542 20.125 14.5417 20.625 14.25C21.125 13.9583 21.625 13.7083 22.125 13.5L23.125 5.5H36.875L37.875 13.5C38.4167 13.7083 38.9275 13.9583 39.4075 14.25C39.8875 14.5417 40.3558 14.8542 40.8125 15.1875L48.25 12.0625L55.125 23.9375L48.6875 28.8125C48.7292 29.1042 48.75 29.3858 48.75 29.6575V31.3425C48.75 31.6142 48.7083 31.8958 48.625 32.1875L55.0625 37.0625L48.1875 48.9375L40.8125 45.8125C40.3542 46.1458 39.875 46.4583 39.375 46.75C38.875 47.0417 38.375 47.2917 37.875 47.5L36.875 55.5H23.125ZM30.125 39.25C32.5417 39.25 34.6042 38.3958 36.3125 36.6875C38.0208 34.9792 38.875 32.9167 38.875 30.5C38.875 28.0833 38.0208 26.0208 36.3125 24.3125C34.6042 22.6042 32.5417 21.75 30.125 21.75C27.6667 21.75 25.5933 22.6042 23.905 24.3125C22.2167 26.0208 21.3733 28.0833 21.375 30.5C21.375 32.9167 22.2192 34.9792 23.9075 36.6875C25.5958 38.3958 27.6683 39.25 30.125 39.25Z" fill="#4F8EA0"/>
</svg>
