<svg width="46" height="42" viewBox="0 0 46 42" fill="none" xmlns="http://www.w3.org/2000/svg">
<path d="M7.36271 12.6013C6.6446 8.80532 9.97946 5.39556 15.0739 4.14633C15.9779 3.92449 16.9533 3.98763 17.8014 4.32291C18.6494 4.65818 19.3063 5.24034 19.6382 5.95078L21.2736 9.45106C21.5369 10.0142 21.5845 10.6276 21.4103 11.2125C21.2362 11.7975 20.8482 12.3274 20.2961 12.7341L15.431 16.3098C15.1912 16.4864 15.0125 16.7099 14.9124 16.9585C14.8122 17.207 14.794 17.4721 14.8596 17.728L14.9047 17.8849L15.0212 18.2772C15.6263 20.1832 16.5482 22.0152 17.7621 23.7238C19.0844 25.5394 20.7254 27.1928 22.6347 28.6332L22.785 28.7418C23.0279 28.9149 23.3225 29.0344 23.6401 29.0889C23.9577 29.1434 24.2874 29.1309 24.5972 29.0526L30.8872 27.4624C31.6021 27.2823 32.3677 27.2777 33.0858 27.4492C33.8039 27.6207 34.4418 27.9605 34.9176 28.425L37.8953 31.3248C39.136 32.5318 38.9856 34.3061 37.5607 35.3713C33.6619 38.2892 28.3005 38.8866 24.5709 36.4817C19.9992 33.522 16.1452 29.9123 13.2015 25.833C10.234 21.7568 8.25549 17.2676 7.36271 12.6013ZM18.7997 17.9272L22.8302 14.958C23.9349 14.1449 24.7116 13.0853 25.0607 11.9154C25.4097 10.7454 25.3151 9.51842 24.789 8.39193L23.1573 4.89164C22.4893 3.46278 21.168 2.29195 19.4622 1.61754C17.7565 0.943128 15.7946 0.815846 13.976 1.26161C7.64844 2.81561 2.56907 7.369 3.64435 13.057C4.39629 17.028 6.12952 22.0792 9.95315 27.3538C13.129 31.7524 17.2863 35.6444 22.2173 38.8353C27.8118 42.4412 35.2786 41.2101 40.1286 37.5831C41.5163 36.546 42.3587 35.123 42.4838 33.6045C42.6088 32.086 42.0072 30.5864 40.8016 29.4117L37.8239 26.5089C36.8713 25.581 35.5951 24.9025 34.1589 24.5606C32.7227 24.2187 31.192 24.2288 29.7631 24.5898L24.5408 25.9084C23.1925 24.7927 22.0114 23.5541 21.0217 22.218C20.0657 20.8673 19.3207 19.4272 18.8035 17.9302" fill="#F9FDFF"/>
</svg>
