<svg width="18" height="17" viewBox="0 0 18 17" fill="none" xmlns="http://www.w3.org/2000/svg">
<path d="M16.485 16.654L10.223 10.392C9.72298 10.818 9.14798 11.1476 8.49798 11.381C7.84798 11.6143 7.19465 11.731 6.53798 11.731C4.93665 11.731 3.58132 11.1766 2.47198 10.068C1.36265 8.95865 0.807983 7.60365 0.807983 6.00298C0.807983 4.40232 1.36198 3.04665 2.46998 1.93598C3.57865 0.824648 4.93332 0.268982 6.53398 0.268982C8.13532 0.268982 9.49132 0.823649 10.602 1.93298C11.7127 3.04232 12.268 4.39798 12.268 5.99998C12.268 6.69465 12.145 7.36698 11.899 8.01698C11.6523 8.66698 11.329 9.22298 10.929 9.68498L17.191 15.946L16.485 16.654ZM6.53798 10.73C7.86465 10.73 8.98498 10.2733 9.89898 9.35998C10.8123 8.44665 11.269 7.32631 11.269 5.99898C11.269 4.67231 10.8123 3.55232 9.89898 2.63898C8.98565 1.72565 7.86565 1.26898 6.53898 1.26898C5.21232 1.26898 4.09198 1.72565 3.17798 2.63898C2.26465 3.55232 1.80798 4.67231 1.80798 5.99898C1.80798 7.32565 2.26465 8.44565 3.17798 9.35898C4.09132 10.2723 5.21132 10.73 6.53798 10.73Z" fill="#71BAE4"/>
</svg>
