<svg width="30" height="30" viewBox="0 0 30 30" fill="none" xmlns="http://www.w3.org/2000/svg">
<path d="M15 25.5L14.52 24.96C14.22 24.66 7.20001 16.38 7.20001 11.4C7.20001 7.07998 10.68 3.59998 15 3.59998C19.32 3.59998 22.8 7.07998 22.8 11.4C22.8 16.38 15.78 24.66 15.48 25.02L15 25.5ZM15 4.79998C11.34 4.79998 8.40001 7.73998 8.40001 11.4C8.40001 15.24 13.44 21.72 15 23.64C16.56 21.72 21.6 15.24 21.6 11.4C21.6 7.73998 18.66 4.79998 15 4.79998Z" fill="#95C2CF"/>
<path d="M15 14.4C13.32 14.4 12 13.08 12 11.4C12 9.72002 13.32 8.40002 15 8.40002C16.68 8.40002 18 9.72002 18 11.4C18 13.08 16.68 14.4 15 14.4ZM15 9.60002C13.98 9.60002 13.2 10.38 13.2 11.4C13.2 12.42 13.98 13.2 15 13.2C16.02 13.2 16.8 12.42 16.8 11.4C16.8 10.38 16.02 9.60002 15 9.60002Z" fill="#95C2CF"/>
</svg>
