<svg width="30" height="30" viewBox="0 0 30 30" fill="none" xmlns="http://www.w3.org/2000/svg">
<path d="M24.375 4.21875H21.0938V2.8125C21.0938 2.68818 21.0444 2.56895 20.9565 2.48104C20.8685 2.39314 20.7493 2.34375 20.625 2.34375C20.5007 2.34375 20.3815 2.39314 20.2935 2.48104C20.2056 2.56895 20.1562 2.68818 20.1562 2.8125V4.21875H9.84375V2.8125C9.84375 2.68818 9.79436 2.56895 9.70646 2.48104C9.61855 2.39314 9.49932 2.34375 9.375 2.34375C9.25068 2.34375 9.13145 2.39314 9.04354 2.48104C8.95564 2.56895 8.90625 2.68818 8.90625 2.8125V4.21875H5.625C5.25204 4.21875 4.89435 4.36691 4.63063 4.63063C4.36691 4.89435 4.21875 5.25204 4.21875 5.625V24.375C4.21875 24.748 4.36691 25.1056 4.63063 25.3694C4.89435 25.6331 5.25204 25.7812 5.625 25.7812H24.375C24.748 25.7812 25.1056 25.6331 25.3694 25.3694C25.6331 25.1056 25.7812 24.748 25.7812 24.375V5.625C25.7812 5.25204 25.6331 4.89435 25.3694 4.63063C25.1056 4.36691 24.748 4.21875 24.375 4.21875ZM5.625 5.15625H8.90625V6.5625C8.90625 6.68682 8.95564 6.80605 9.04354 6.89396C9.13145 6.98186 9.25068 7.03125 9.375 7.03125C9.49932 7.03125 9.61855 6.98186 9.70646 6.89396C9.79436 6.80605 9.84375 6.68682 9.84375 6.5625V5.15625H20.1562V6.5625C20.1562 6.68682 20.2056 6.80605 20.2935 6.89396C20.3815 6.98186 20.5007 7.03125 20.625 7.03125C20.7493 7.03125 20.8685 6.98186 20.9565 6.89396C21.0444 6.80605 21.0938 6.68682 21.0938 6.5625V5.15625H24.375C24.4993 5.15625 24.6185 5.20564 24.7065 5.29354C24.7944 5.38145 24.8438 5.50068 24.8438 5.625V9.84375H5.15625V5.625C5.15625 5.50068 5.20564 5.38145 5.29354 5.29354C5.38145 5.20564 5.50068 5.15625 5.625 5.15625ZM24.375 24.8438H5.625C5.50068 24.8438 5.38145 24.7944 5.29354 24.7065C5.20564 24.6185 5.15625 24.4993 5.15625 24.375V10.7812H24.8438V24.375C24.8438 24.4993 24.7944 24.6185 24.7065 24.7065C24.6185 24.7944 24.4993 24.8438 24.375 24.8438ZM12.6562 14.0625V21.5625C12.6562 21.6868 12.6069 21.806 12.519 21.894C12.431 21.9819 12.3118 22.0312 12.1875 22.0312C12.0632 22.0312 11.944 21.9819 11.856 21.894C11.7681 21.806 11.7188 21.6868 11.7188 21.5625V14.8207L10.5223 15.4195C10.411 15.4752 10.2822 15.4843 10.1642 15.445C10.0462 15.4056 9.9486 15.321 9.89297 15.2098C9.83734 15.0985 9.82818 14.9697 9.86752 14.8517C9.90686 14.7337 9.99147 14.6361 10.1027 14.5805L11.9777 13.643C12.0492 13.6072 12.1287 13.5903 12.2085 13.5939C12.2884 13.5975 12.366 13.6214 12.434 13.6635C12.502 13.7055 12.5581 13.7642 12.597 13.8341C12.6359 13.9039 12.6563 13.9826 12.6562 14.0625ZM19.6875 17.3438L16.875 21.0938H19.6875C19.8118 21.0938 19.931 21.1431 20.019 21.231C20.1069 21.319 20.1562 21.4382 20.1562 21.5625C20.1562 21.6868 20.1069 21.806 20.019 21.894C19.931 21.9819 19.8118 22.0312 19.6875 22.0312H15.9375C15.8504 22.0312 15.7651 22.007 15.6911 21.9612C15.617 21.9155 15.5572 21.85 15.5182 21.7721C15.4793 21.6943 15.4628 21.6071 15.4706 21.5204C15.4785 21.4337 15.5103 21.3509 15.5625 21.2812L18.9352 16.7848C19.1202 16.5412 19.2199 16.2434 19.2188 15.9375C19.2191 15.6276 19.1171 15.3264 18.9286 15.0804C18.7401 14.8345 18.4756 14.6577 18.1763 14.5776C17.877 14.4974 17.5596 14.5183 17.2735 14.6371C16.9873 14.7559 16.7483 14.9658 16.5938 15.2344C16.5289 15.3364 16.4271 15.4094 16.3097 15.4382C16.1923 15.467 16.0683 15.4492 15.9636 15.3887C15.8589 15.3282 15.7817 15.2296 15.748 15.1135C15.7143 14.9974 15.7268 14.8728 15.7828 14.7656C16.0408 14.3188 16.439 13.9697 16.9156 13.7722C17.3923 13.5748 17.9208 13.5402 18.4191 13.6737C18.9175 13.8072 19.3578 14.1015 19.6719 14.5108C19.986 14.9201 20.1562 15.4216 20.1562 15.9375C20.158 16.4449 19.9934 16.9389 19.6875 17.3438Z" fill="#95C2CF"/>
</svg>
