<svg width="22" height="22" viewBox="0 0 22 22" fill="none" xmlns="http://www.w3.org/2000/svg">
<path fill-rule="evenodd" clip-rule="evenodd" d="M2.79096 10.7023C2.79096 15.1668 6.02789 18.2087 9.66376 18.8379C9.76266 18.855 9.85722 18.8915 9.94204 18.9452C10.0269 18.9988 10.1003 19.0687 10.1581 19.1508C10.2159 19.2328 10.257 19.3255 10.279 19.4234C10.301 19.5213 10.3035 19.6226 10.2864 19.7215C10.2692 19.8204 10.2328 19.915 10.1791 19.9998C10.1254 20.0846 10.0555 20.158 9.97347 20.2159C9.89142 20.2737 9.79878 20.3148 9.70084 20.3368C9.60291 20.3588 9.5016 20.3613 9.40269 20.3441C5.13323 19.6049 1.2627 16.0057 1.2627 10.7023C1.2627 8.44801 2.2879 6.67628 3.48469 5.32988C4.34269 4.36481 5.3239 3.58014 6.11296 2.98028H3.7135C3.519 2.98028 3.33248 2.90302 3.19495 2.76549C3.05742 2.62796 2.98016 2.44144 2.98016 2.24694C2.98016 2.05245 3.05742 1.86593 3.19495 1.7284C3.33248 1.59087 3.519 1.51361 3.7135 1.51361H8.11349C8.30799 1.51361 8.49451 1.59087 8.63204 1.7284C8.76957 1.86593 8.84683 2.05245 8.84683 2.24694V6.64694C8.84683 6.84144 8.76957 7.02796 8.63204 7.16549C8.49451 7.30302 8.30799 7.38028 8.11349 7.38028C7.919 7.38028 7.73248 7.30302 7.59495 7.16549C7.45742 7.02796 7.38016 6.84144 7.38016 6.64694V3.93948L7.3787 3.94241C6.53976 4.57308 5.51603 5.34601 4.62869 6.34481C3.58003 7.52401 2.79096 8.95108 2.79096 10.7023ZM19.0827 11.2963C19.0827 6.87868 15.9147 3.85588 12.3258 3.18121C12.2257 3.16424 12.1301 3.12752 12.0444 3.07319C11.9587 3.01886 11.8847 2.94801 11.8267 2.86477C11.7687 2.78153 11.7278 2.68758 11.7065 2.58838C11.6852 2.48919 11.6838 2.38674 11.7025 2.28702C11.7212 2.1873 11.7596 2.0923 11.8154 2.00757C11.8712 1.92284 11.9433 1.85006 12.0276 1.7935C12.1118 1.73693 12.2064 1.6977 12.306 1.6781C12.4055 1.65851 12.508 1.65893 12.6074 1.67934C16.8226 2.47134 20.611 6.05001 20.611 11.2963C20.611 13.5505 19.5858 15.3208 18.389 16.6687C17.531 17.6337 16.5498 18.4184 15.7607 19.0183H18.1602C18.3547 19.0183 18.5412 19.0955 18.6787 19.2331C18.8162 19.3706 18.8935 19.5571 18.8935 19.7516C18.8935 19.9461 18.8162 20.1326 18.6787 20.2702C18.5412 20.4077 18.3547 20.4849 18.1602 20.4849H13.7602C13.5657 20.4849 13.3791 20.4077 13.2416 20.2702C13.1041 20.1326 13.0268 19.9461 13.0268 19.7516V15.3516C13.0268 15.1571 13.1041 14.9706 13.2416 14.8331C13.3791 14.6955 13.5657 14.6183 13.7602 14.6183C13.9547 14.6183 14.1412 14.6955 14.2787 14.8331C14.4162 14.9706 14.4935 15.1571 14.4935 15.3516V18.0576H14.4964C15.3339 17.424 16.3591 16.6525 17.245 15.6523C18.2936 14.4745 19.0827 13.0489 19.0827 11.2963Z" fill="#95C2CF"/>
</svg>
