<svg width="25" height="25" viewBox="0 0 25 25" fill="none" xmlns="http://www.w3.org/2000/svg">
<path fill-rule="evenodd" clip-rule="evenodd" d="M15.875 6.59375C15.875 7.48886 15.5194 8.3473 14.8865 8.98024C14.2535 9.61317 13.3951 9.96875 12.5 9.96875C11.6049 9.96875 10.7464 9.61317 10.1135 8.98024C9.48058 8.3473 9.125 7.48886 9.125 6.59375C9.125 5.69864 9.48058 4.8402 10.1135 4.20726C10.7464 3.57433 11.6049 3.21875 12.5 3.21875C13.3951 3.21875 14.2535 3.57433 14.8865 4.20726C15.5194 4.8402 15.875 5.69864 15.875 6.59375ZM18.4062 6.59375C18.4062 8.16018 17.784 9.66246 16.6763 10.7701C15.5687 11.8777 14.0664 12.5 12.5 12.5C10.9336 12.5 9.43129 11.8777 8.32365 10.7701C7.21601 9.66246 6.59375 8.16018 6.59375 6.59375C6.59375 5.02732 7.21601 3.52504 8.32365 2.4174C9.43129 1.30976 10.9336 0.6875 12.5 0.6875C14.0664 0.6875 15.5687 1.30976 16.6763 2.4174C17.784 3.52504 18.4062 5.02732 18.4062 6.59375ZM3.21875 20.0938C3.21875 19.7495 3.59 18.7286 5.44625 17.6317C7.16412 16.6175 9.665 15.875 12.5 15.875C15.335 15.875 17.8359 16.6175 19.5538 17.6317C21.41 18.7286 21.7812 19.7495 21.7812 20.0938C21.7812 20.5413 21.6035 20.9705 21.287 21.287C20.9705 21.6035 20.5413 21.7812 20.0938 21.7812H4.90625C4.4587 21.7812 4.02947 21.6035 3.71301 21.287C3.39654 20.9705 3.21875 20.5413 3.21875 20.0938ZM12.5 13.3438C6.00313 13.3438 0.6875 16.7188 0.6875 20.0938C0.6875 21.2126 1.13197 22.2857 1.92314 23.0769C2.71431 23.868 3.78737 24.3125 4.90625 24.3125H20.0938C21.2126 24.3125 22.2857 23.868 23.0769 23.0769C23.868 22.2857 24.3125 21.2126 24.3125 20.0938C24.3125 16.7188 18.9969 13.3438 12.5 13.3438Z" fill="black"/>
</svg>
